<mxfile host="app.diagrams.net" modified="2023-08-27T21:47:26.810Z" agent="Mozilla/5.0 (Windows NT 10.0; Win64; x64) AppleWebKit/537.36 (KHTML, like Gecko) Chrome/116.0.0.0 Safari/537.36 Edg/116.0.1938.62" version="21.3.8" etag="mYlSvddRE7FqTb03lI1c" type="github">
  <diagram name="PÃ¡gina-1" id="OWuLll3_A8nsc02PXsd9">
    <mxGraphModel>
      <root>
        <mxCell id="0" />
        <mxCell id="1" parent="0" />
      </root>
    </mxGraphModel>
  </diagram>
</mxfile>
